<svg xmlns="http://www.w3.org/2000/svg" width="40" height="40" viewBox="0 0 40 40" fill="none">
	<g clip-path="url(#clip0_421_29107)">
		<path fill-rule="evenodd" clip-rule="evenodd" d="M11.2492 11.3627C12.9788 9.63193 15.1828 8.45299 17.5824 7.97507C19.982 7.49714 22.4695 7.74169 24.7301 8.67779C26.9907 9.61389 28.923 11.1995 30.2825 13.234C31.642 15.2685 32.3676 17.6606 32.3676 20.1076C32.3676 22.5546 31.642 24.9467 30.2825 26.9812C28.923 29.0158 26.9907 30.6014 24.7301 31.5375C22.4695 32.4736 19.982 32.7181 17.5824 32.2402C15.1828 31.7623 12.9788 30.5833 11.2492 28.8525C8.9334 26.5315 7.63279 23.3865 7.63279 20.1076C7.63279 16.8287 8.9334 13.6837 11.2492 11.3627ZM19.9907 6.15474C17.2491 6.15381 14.5688 6.96609 12.2888 8.48885C10.0089 10.0116 8.2317 12.1764 7.1821 14.7095C6.1325 17.2425 5.85763 20.03 6.39227 22.7193C6.92691 25.4086 8.24702 27.8789 10.1856 29.8178C12.1243 31.7566 14.5943 33.0769 17.2833 33.6116C19.9723 34.1463 22.7594 33.8714 25.2921 32.8216C27.8249 31.7719 29.9895 29.9945 31.512 27.7143C33.0346 25.4341 33.8468 22.7535 33.8459 20.0115C33.8397 16.3384 32.378 12.8175 29.781 10.2201C27.184 7.62283 23.6634 6.16094 19.9907 6.15474ZM37.2909 9.95175L31.2773 8.65327L29.9462 2.64835L24.0967 4.52342L19.9439 -0.00488281L15.8145 4.55155L9.95088 2.69991L8.65255 8.70952L2.64833 10.0408L4.52318 15.8957L-0.00927734 20.049L4.54193 24.1742L2.6952 30.0385L8.70411 31.337L10.0306 37.3419L15.8895 35.4668L20.0423 39.9998L24.167 35.4434L30.0353 37.295L31.3336 31.2854L37.3331 29.9494L35.4583 24.0992L39.9954 19.9459L35.4395 15.816L37.2909 9.95175Z" fill="#F05514"/>
	</g>
	<defs>
		<clipPath id="clip0_421_29107">
			<rect width="40" height="40" fill="white"/>
		</clipPath>
	</defs>
</svg>
